<?xml version="1.0" encoding="UTF-8"?>
<svg id="Layer_2" data-name="Layer 2" xmlns="http://www.w3.org/2000/svg" viewBox="0 0 691.24 149.35">
  <defs>
    <style>
      .cls-1 {
        fill: #fff;
      }
    </style>
  </defs>
  <g id="Layer_1-2" data-name="Layer 1">
    <path class="cls-1" d="M202.23,126.1V23.54c0-.87.7-1.57,1.57-1.57h13.89c.87,0,1.57.7,1.57,1.57v40.74c0,1.55,1.26,2.81,2.81,2.81h18.26c2.1,0,4.05-1.09,5.15-2.88l25.53-41.49c.29-.47.79-.75,1.34-.75h15.68c1.24,0,1.99,1.36,1.33,2.41l-28.34,45.23c-1.82,2.9-1.84,6.59-.05,9.51l28.27,46.16c.64,1.05-.11,2.4-1.34,2.4h-15.87c-.55,0-1.05-.28-1.34-.75l-24.9-40.54c-1.1-1.79-3.05-2.88-5.16-2.88h-18.57c-1.55,0-2.81,1.26-2.81,2.81v39.79c0,.87-.7,1.57-1.57,1.57h-13.89c-.87,0-1.57-.7-1.57-1.57Z"/>
    <path class="cls-1" d="M300.81,126.13V50.8c0-.85.69-1.54,1.54-1.54h12.54c.85,0,1.54.69,1.54,1.54v13.13h.63c3.63-8.36,11.99-16.25,27.29-16.25,20.35,0,29.5,12.94,29.5,30.76v47.68c0,.85-.69,1.54-1.54,1.54h-13.96c-.85,0-1.54-.69-1.54-1.54v-43.9c0-14.04-4.42-19.88-18.77-19.88s-20.19,5.36-20.19,20.04v43.74c0,.85-.69,1.54-1.54,1.54h-13.96c-.85,0-1.54-.69-1.54-1.54Z"/>
    <path class="cls-1" d="M386.56,88.39c0-24.3,14.99-40.7,39.13-40.7s38.5,16.41,38.5,40.7-14.52,40.86-38.5,40.86-39.13-16.41-39.13-40.86ZM447.78,88.39c0-17.51-5.68-25.56-22.09-25.56s-22.4,8.05-22.4,25.56,5.84,25.72,22.4,25.72,22.09-8.05,22.09-25.72Z"/>
    <path class="cls-1" d="M482.7,103.53v-39.29c0-.43-.35-.79-.79-.79h-11.52c-.43,0-.79-.35-.79-.79v-12.63c0-.43.35-.79.79-.79h8.14c2.6,0,4.83-1.85,5.31-4.41l2.68-14.36c.07-.37.39-.64.77-.64h11.66c.43,0,.79.35.79.79v17.83c0,.43.35.79.79.79h22.09c.43,0,.79.35.79.79v12.63c0,.43-.35.79-.79.79h-22.09c-.43,0-.79.35-.79.79v38.5c0,8.2,3.47,9.62,14.04,9.62h8.84c.43,0,.79.35.79.79v12.47c0,.37-.25.69-.61.77-3.34.72-8.39,1.28-13.43,1.28-17.51,0-26.66-6.47-26.66-24.14Z"/>
    <path class="cls-1" d="M529.84,88.39c0-24.3,14.51-40.7,37.86-40.7,21.14,0,35.97,12.62,35.97,34.08,0,4.1-.47,8.36-.95,10.73h-53.7c-1.78,0-3.2,1.53-3.01,3.3,1.29,12.17,6.91,18.31,22,18.31,13.09,0,18.14-4.42,18.14-11.52v-1.26h16.88v1.42c0,16.09-14.04,26.51-35.18,26.51-25.87,0-38.02-16.41-38.02-40.86ZM549.32,81.13h35.11c1.69,0,3.09-1.4,3-3.08-.58-11.2-7.71-16.01-20.04-16.01-13.37,0-19.3,5.64-21.03,15.65-.31,1.8,1.14,3.44,2.97,3.44Z"/>
    <path class="cls-1" d="M614.56,88.39c0-24.77,11.99-40.7,33.6-40.7,13.88,0,22.25,6.63,25.72,13.73h.47V23.54c0-.87.7-1.57,1.57-1.57h13.74c.87,0,1.57.7,1.57,1.57v102.57c0,.87-.7,1.57-1.57,1.57h-12.48c-.87,0-1.57-.7-1.57-1.57v-11.37h-.63c-3.79,8.99-12.46,14.51-25.88,14.51-22.4,0-34.55-15.93-34.55-40.86ZM652.9,114.74c13.88,0,21.46-6.15,21.46-19.25v-14.04c0-13.09-7.57-19.25-21.46-19.25-14.99,0-21.3,6.94-21.3,26.19s6.15,26.35,21.3,26.35Z"/>
    <path class="cls-1" d="M62.3,141.05c-.38-1.98-1.97-3.5-3.97-3.75-1-.12-1.99-.26-2.98-.42-3.83-.6-6.66,3.48-4.75,6.86.62,1.1,1.26,2.16,1.92,3.16.68,1.04,1.74,1.78,2.96,2.01.67.13,1.35.25,2.03.37,3.25.54,6.03-2.32,5.33-5.54-.19-.87-.37-1.77-.55-2.7Z"/>
    <path class="cls-1" d="M94.03,136.89c-.99.15-1.98.29-2.98.42-2,.25-3.59,1.77-3.97,3.75-.18.93-.36,1.83-.55,2.7-.69,3.22,2.09,6.08,5.33,5.54.68-.11,1.36-.24,2.03-.37,1.22-.24,2.28-.98,2.96-2.01.66-1,1.3-2.05,1.92-3.16,1.9-3.38-.92-7.46-4.75-6.86Z"/>
    <path class="cls-1" d="M87.08,8.3c.38,1.98,1.97,3.5,3.97,3.75,1,.12,1.99.26,2.98.42,3.83.6,6.66-3.48,4.75-6.86-.62-1.1-1.26-2.16-1.92-3.16-.68-1.04-1.74-1.78-2.96-2.01-.67-.13-1.35-.25-2.03-.37-3.25-.54-6.03,2.32-5.33,5.54.19.87.37,1.77.55,2.7Z"/>
    <path class="cls-1" d="M55.35,12.46c.99-.15,1.98-.29,2.98-.42,2-.25,3.59-1.77,3.97-3.75.18-.93.36-1.83.55-2.7.69-3.22-2.09-6.08-5.33-5.54-.68.11-1.36.24-2.03.37-1.22.24-2.28.98-2.96,2.01-.66,1-1.3,2.05-1.92,3.16-1.9,3.38.92,7.46,4.75,6.86Z"/>
    <path class="cls-1" d="M121.39,111.16c-1.57.44-3.18.86-4.83,1.24-1.7.4-3.03,1.74-3.42,3.44-.42,1.81-.87,3.58-1.36,5.29-1.03,3.63,2.51,6.93,6.04,5.6,1.64-.62,3.24-1.28,4.79-1.98,1-.45,1.81-1.26,2.26-2.26.78-1.72,1.51-3.49,2.18-5.31,1.31-3.55-2.01-7.05-5.65-6.02Z"/>
    <path class="cls-1" d="M36.24,115.84c-.39-1.7-1.72-3.05-3.42-3.44-1.65-.38-3.26-.8-4.83-1.24-3.64-1.03-6.96,2.47-5.65,6.02.67,1.82,1.4,3.59,2.18,5.31.45,1,1.26,1.81,2.26,2.26,1.55.7,3.15,1.37,4.79,1.98,3.53,1.33,7.08-1.98,6.04-5.6-.49-1.72-.94-3.48-1.36-5.29Z"/>
    <path class="cls-1" d="M27.98,38.2c1.57-.44,3.18-.86,4.83-1.24,1.7-.4,3.03-1.74,3.42-3.44.42-1.81.87-3.58,1.36-5.29,1.03-3.63-2.51-6.93-6.04-5.6-1.64.62-3.24,1.28-4.79,1.98-1,.45-1.81,1.26-2.26,2.26-.78,1.72-1.51,3.49-2.18,5.31-1.31,3.55,2.01,7.05,5.65,6.02Z"/>
    <path class="cls-1" d="M113.14,33.52c.39,1.7,1.72,3.05,3.42,3.44,1.65.38,3.26.8,4.83,1.24,3.64,1.03,6.96-2.47,5.65-6.02-.67-1.82-1.4-3.59-2.18-5.31-.45-1-1.26-1.81-2.26-2.26-1.55-.7-3.15-1.37-4.79-1.98-3.53-1.33-7.08,1.98-6.04,5.6.49,1.72.94,3.48,1.36,5.29Z"/>
    <path class="cls-1" d="M69.21,32.08c1.81-.06,3.63-.1,5.48-.1s3.67.03,5.48.1c2.84.1,5.12-2.31,4.82-5.14-.29-2.64-.6-5.15-.94-7.54-.31-2.18-2.13-3.84-4.33-3.95-1.66-.08-3.33-.12-5.02-.12s-3.36.04-5.02.12c-2.2.11-4.02,1.77-4.33,3.95-.34,2.38-.66,4.9-.94,7.54-.31,2.83,1.98,5.24,4.82,5.14Z"/>
    <path class="cls-1" d="M80.16,117.27c-1.81.06-3.63.1-5.48.1s-3.67-.03-5.48-.1c-2.84-.1-5.12,2.31-4.82,5.14.29,2.64.6,5.15.94,7.54.31,2.18,2.13,3.84,4.33,3.95,1.66.08,3.33.12,5.02.12s3.36-.04,5.02-.12c2.2-.11,4.02-1.77,4.33-3.95.34-2.38.66-4.9.94-7.54.31-2.83-1.98-5.24-4.82-5.14Z"/>
    <path class="cls-1" d="M143.77,86.47c-.87.19-1.77.37-2.7.55-1.98.38-3.5,1.97-3.75,3.97-.11.88-.23,1.74-.36,2.61-.58,3.82,3.46,6.63,6.84,4.76,1.11-.61,2.16-1.25,3.17-1.9,1.06-.69,1.81-1.76,2.04-2.99.1-.56.2-1.11.3-1.67.54-3.24-2.33-6.01-5.54-5.32Z"/>
    <path class="cls-1" d="M5.57,51c-1.11.61-2.16,1.25-3.17,1.9-1.06.69-1.81,1.76-2.04,2.99-.1.56-.2,1.11-.3,1.67-.54,3.24,2.33,6.01,5.54,5.32.87-.19,1.77-.37,2.7-.55,1.98-.38,3.5-1.97,3.75-3.97.11-.88.23-1.74.36-2.61.58-3.82-3.46-6.63-6.84-4.76Z"/>
    <path class="cls-1" d="M12.05,90.99c-.25-2-1.77-3.59-3.75-3.97-.93-.18-1.83-.36-2.7-.55-3.21-.69-6.08,2.08-5.54,5.32.09.56.19,1.12.3,1.67.23,1.24.98,2.31,2.04,2.99,1,.65,2.06,1.28,3.17,1.9,3.38,1.87,7.42-.94,6.84-4.76-.13-.86-.25-1.73-.36-2.61Z"/>
    <path class="cls-1" d="M137.33,58.37c.25,2,1.77,3.59,3.75,3.97.93.18,1.83.36,2.7.55,3.21.69,6.08-2.08,5.54-5.32-.09-.56-.19-1.12-.3-1.67-.23-1.24-.98-2.31-2.04-2.99-1-.65-2.06-1.28-3.17-1.9-3.38-1.87-7.42.94-6.84,4.76.13.86.25,1.73.36,2.61Z"/>
    <path class="cls-1" d="M31.47,80.12c-.06-1.8-.1-3.61-.1-5.44s.03-3.65.1-5.44c.1-2.83-2.31-5.1-5.13-4.79-2.44.27-4.78.57-7,.89-2.18.31-3.84,2.13-3.95,4.33-.08,1.66-.12,3.33-.12,5.02s.04,3.36.12,5.02c.11,2.2,1.77,4.02,3.95,4.33,2.22.32,4.56.62,7,.89,2.82.31,5.23-1.96,5.13-4.79Z"/>
    <path class="cls-1" d="M130.04,65.33c-2.22-.32-4.56-.62-7-.89-2.82-.31-5.23,1.96-5.13,4.79.06,1.8.1,3.61.1,5.44s-.03,3.65-.1,5.44c-.1,2.83,2.31,5.1,5.13,4.79,2.44-.27,4.78-.57,7-.89,2.18-.31,3.84-2.13,3.95-4.33.08-1.66.12-3.33.12-5.02s-.04-3.36-.12-5.02c-.11-2.2-1.77-4.02-3.95-4.33Z"/>
    <path class="cls-1" d="M35.47,54.01c-.33,3.12,2.25,5.78,5.38,5.55,4.22-.31,8.61-.56,13.13-.74,2.62-.11,4.72-2.21,4.82-4.83.18-4.29.41-8.46.7-12.48.22-3.13-2.43-5.7-5.55-5.38-4.38.46-8.62,1.07-12.71,1.83-2.07.38-3.68,2-4.06,4.06-.7,3.86-1.28,7.87-1.72,11.99Z"/>
    <path class="cls-1" d="M59.5,107.85c-.29-4.02-.52-8.18-.7-12.48-.11-2.62-2.21-4.72-4.82-4.83-4.53-.19-8.92-.44-13.13-.74-3.13-.23-5.72,2.43-5.38,5.55.44,4.12,1.02,8.12,1.72,11.99.38,2.07,1.99,3.68,4.06,4.06,4.09.75,8.33,1.37,12.71,1.83,3.12.33,5.77-2.25,5.55-5.38Z"/>
    <path class="cls-1" d="M113.91,95.38c.33-3.13-2.24-5.81-5.38-5.58-2.68.19-5.43.36-8.25.51-2.23.12-4.41-.72-5.98-2.3l-2.42-2.41c-1.5-1.5-2.33-3.55-2.31-5.67.02-1.73.03-3.48.03-5.24s-.01-3.51-.03-5.24c-.02-2.12.81-4.17,2.31-5.67l2.42-2.41c1.58-1.58,3.75-2.42,5.98-2.3,2.81.15,5.57.32,8.25.51,3.14.23,5.71-2.44,5.38-5.58-.44-4.11-1.02-8.1-1.72-11.96-.38-2.07-1.99-3.68-4.06-4.06-4.09-.75-8.33-1.37-12.71-1.83-3.12-.33-5.77,2.25-5.55,5.37.18,2.46.33,4.99.46,7.56.12,2.23-.73,4.4-2.3,5.98l-2.43,2.43c-1.5,1.5-3.55,2.34-5.67,2.31-1.37-.02-2.74-.03-4.12-.03-.18,0-.37,0-.55,0-.19,0-.38,0-.57,0h0c-.19,0-.38,0-.57,0-.19,0-.37,0-.55,0-7.08.11-10.7,1.28-12.42,5.06-.16.36-.31.74-.44,1.15-.06.21-.13.42-.18.63-.03.11-.06.22-.08.33-.05.22-.1.45-.15.69-.02.12-.05.24-.07.36-.07.36-.12.75-.17,1.14-.15,1.19-.23,2.52-.26,4.01,0,.49-.01,1-.01,1.52s0,1.03.01,1.52c0,.05,0,.11,0,.16.26,10.81,3.23,13.23,14.89,13.23h.02c1.76,0,3.51-.01,5.24-.03,2.13-.02,4.17.81,5.67,2.31l2.43,2.43c1.58,1.58,2.42,3.75,2.3,5.98-.13,2.57-.29,5.1-.46,7.56-.22,3.13,2.43,5.7,5.55,5.37,4.38-.46,8.62-1.07,12.71-1.83,2.06-.38,3.68-1.99,4.06-4.06.7-3.86,1.28-7.85,1.72-11.96Z"/>
  </g>
</svg>