<?xml version="1.0" encoding="utf-8"?>
<!-- Generator: Adobe Illustrator 25.2.3, SVG Export Plug-In . SVG Version: 6.00 Build 0)  -->
<svg version="1.1" id="Layer_1" xmlns="http://www.w3.org/2000/svg" xmlns:xlink="http://www.w3.org/1999/xlink" x="0px" y="0px"
	 viewBox="0 0 24 24" style="enable-background:new 0 0 24 24;" xml:space="preserve">
<path d="M14.2,15.2L10,11l-5.7,5.7l2.1,2.1c1.2,1.2,3.1,1.2,4.2,0C10.7,18.8,14.2,15.2,14.2,15.2z M12.8,19.5h2.7c0.6,0,1,0.4,1,1
	s-0.4,1-1,1h-11c-0.6,0-1-0.4-1-1c0-0.5,0.4-0.9,0.9-1l-1.5-1.5c-0.8-0.8-0.8-2,0-2.8L14.2,3.9c0.8-0.8,2-0.8,2.8,0l4.2,4.2
	c0.8,0.8,0.8,2,0,2.8L12.8,19.5z"/>
</svg>
