<?xml version="1.0" encoding="utf-8"?>
<!-- Generator: Adobe Illustrator 23.0.3, SVG Export Plug-In . SVG Version: 6.00 Build 0)  -->
<svg version="1.1" id="Icons" xmlns="http://www.w3.org/2000/svg" xmlns:xlink="http://www.w3.org/1999/xlink" x="0px" y="0px"
	 viewBox="0 0 32 32" style="enable-background:new 0 0 32 32;" xml:space="preserve">
<g>
	<path d="M5.7,23.3c-0.4-0.4-1-0.4-1.4,0C3.8,23.8,2,25.6,2,27c0,1.7,1.3,3,3,3s3-1.3,3-3C8,25.6,6.2,23.8,5.7,23.3z"/>
	<path d="M28.8,15.3l-3-3.4c-1.5,2-3.2,3.9-4.7,5.3c0,0-0.1,0.1-0.1,0.1c-0.2,1.5-1.4,2.6-3,2.6c-1.7,0-3-1.3-3-3s1.3-3,3-3
		c0.4,0,0.9,0.1,1.2,0.3c-0.2,0.2-0.4,0.4-0.6,0.6c-0.4,0.4-0.4,1,0,1.4c0.2,0.2,0.4,0.3,0.7,0.3c0.3,0,0.5-0.1,0.7-0.3
		c4-4,10.1-11.5,7.6-14c-1.7-1.7-5.5,0.5-8.5,2.9c-1.4-0.5-3-0.2-4.1,0.9l-4,4c-2.1,2.1-4.5,3.8-7.3,5c-1,0.4-1.7,1.3-1.9,2.4
		s0.1,2.2,0.9,2.9c0.6,0.6,1.4,1,2.3,1c0.8,0,1.5-0.3,2.1-0.8l4.5-4.5c0.4-0.4,1-0.4,1.4,0c0.4,0.4,0.4,1,0,1.4l-3.9,3.9l7.1,6.3
		c0.9,0.8,2,1.2,3.1,1.2c1.2,0,2.4-0.5,3.4-1.4l5.6-5.6C30.3,20,30.4,17.2,28.8,15.3z M26.3,3.7c0.3,0.5-0.6,2.7-2.8,5.7l-2.6-2.9
		C24.5,3.8,26.1,3.6,26.3,3.7z"/>
</g>
</svg>
