<?xml version="1.0" encoding="UTF-8"?><svg xmlns="http://www.w3.org/2000/svg" id="Layer_2" viewBox="0 0 648.8 64.9"><defs><style type="text/css">
      .cls-1 {
        fill: #fff;
      }
    </style></defs><g id="Layer_1-2"><g><path class="cls-1" d="M0,63.18c4.8-1.81,5.34-3.89,5.34-30.5S4.8,3.8,0,1.99v-.18h16.93v.18c-4.8,1.81-5.34,4.07-5.34,30.68s.54,28.69,5.34,30.5v.18H0v-.18ZM40.82,59.56c-6.06-6.97-15.66-21.63-26.25-34.67C35.12,9.59,37.38,7.33,37.38,4.44c0-1.18-.81-1.63-2.35-2.44v-.18h16.56v.36c-5.16,2.53-19.1,14.12-29.87,22.36,20.46,28.15,27.7,35.93,34.12,38.2v.18c-2.72.18-5.25.72-8.78.72-2.44,0-4.07-1.54-6.25-4.07Z"/><path class="cls-1" d="M117.85,63.18c3.44-1.45,4.44-2.9,16.84-30.87,7.33-16.38,10.23-22.99,11.5-26.07-1.63-1.9-3.44-3.17-5.52-4.25v-.18h11.22c.36,1.81,1.18,3.98,13.03,30.5,12.49,27.97,13.22,29.06,16.84,30.87v.18h-16.38v-.18c1.72-.81,2.81-1.45,2.81-3.71,0-3.26-2.17-9.5-8.06-23.08-3.17-.09-6.61-.09-10.5-.09-4.44,0-8.24,0-11.59.09-5.61,13.03-7.6,19.37-7.6,22.72,0,2.53,1.18,3.35,2.81,4.07v.18h-15.39v-.18ZM149.62,32.13h8.6c-.09-.18-.18-.36-.18-.54-4.16-9.14-6.34-15.03-8.96-20.82-1.9,4.89-4.62,11.13-8.96,20.82-.09.18-.18.36-.27.45,2.9.09,6.16.09,9.78.09Z"/><path class="cls-1" d="M251.17,63.18c4.98-1.99,5.52-4.25,5.52-30.5,0-13.67-.09-20.91-.63-25.43h-3.26c-9.23,0-11.31.18-15.57,2.26h-.18l.54-8.24h.18c1.63.81,18.83,1,21.54,1,2.99,0,21.27-.18,22.99-1h.18l-.63,8.24h-.18c-4.16-2.08-6.79-2.26-15.84-2.26h-2.35c-.36,4.44-.54,11.68-.54,25.43,0,26.34.54,28.51,5.52,30.5v.18h-17.29v-.18Z"/><path class="cls-1" d="M338.25,63.18c3.44-1.45,4.44-2.9,16.84-30.87,7.33-16.38,10.23-22.99,11.5-26.07-1.63-1.9-3.44-3.17-5.52-4.25v-.18h11.22c.36,1.81,1.18,3.98,13.03,30.5,12.49,27.97,13.22,29.06,16.84,30.87v.18h-16.38v-.18c1.72-.81,2.81-1.45,2.81-3.71,0-3.26-2.17-9.5-8.06-23.08-3.17-.09-6.61-.09-10.5-.09-4.44,0-8.24,0-11.59.09-5.61,13.03-7.6,19.37-7.6,22.72,0,2.53,1.18,3.35,2.81,4.07v.18h-15.39v-.18ZM370.02,32.13h8.6c-.09-.18-.18-.36-.18-.54-4.16-9.14-6.34-15.03-8.96-20.82-1.9,4.89-4.62,11.13-8.96,20.82-.09.18-.18.36-.27.45,2.9.09,6.16.09,9.78.09Z"/><path class="cls-1" d="M466.5,63.18c4.89-1.72,5.34-3.53,5.34-30.5v-11.31c0-5.97-.09-12.04-.45-21.18l.72-.18c8.87,10.05,28.06,33.85,39.1,47.97-.09-4.16-.18-9.59-.18-17.02,0-24.89-.54-27.15-5.52-28.96v-.18h16.38v.18c-4.8,1.63-5.25,3.71-5.25,30.68,0,20.37.27,26.79.72,32.04l-.54.18c-9.32-12.67-27.88-35.75-39.65-49.96.09,4.34.27,10.32.27,18.92,0,25.43.54,27.61,5.52,29.33v.18h-16.47v-.18Z"/><path class="cls-1" d="M584.9,63.18c3.44-1.45,4.44-2.9,16.84-30.87,7.33-16.38,10.23-22.99,11.5-26.07-1.63-1.9-3.44-3.17-5.52-4.25v-.18h11.22c.36,1.81,1.18,3.98,13.03,30.5,12.49,27.97,13.21,29.06,16.84,30.87v.18h-16.38v-.18c1.72-.81,2.81-1.45,2.81-3.71,0-3.26-2.17-9.5-8.06-23.08-3.17-.09-6.61-.09-10.5-.09-4.44,0-8.24,0-11.59.09-5.61,13.03-7.6,19.37-7.6,22.72,0,2.53,1.18,3.35,2.81,4.07v.18h-15.39v-.18ZM616.67,32.13h8.6c-.09-.18-.18-.36-.18-.54-4.16-9.14-6.34-15.03-8.96-20.82-1.9,4.89-4.62,11.13-8.96,20.82-.09.18-.18.36-.27.45,2.9.09,6.15.09,9.78.09Z"/></g></g></svg>