<?xml version="1.0" encoding="UTF-8"?><svg xmlns="http://www.w3.org/2000/svg" id="Layer_2" viewBox="0 0 643.65 20.11"><defs><style type="text/css">
      .cls-1 {
        fill: #fff;
      }
    </style></defs><g id="Layer_1-2"><g><path class="cls-1" d="M4.25,19.76c1.5-.6,1.66-1.28,1.66-9.18,0-4.11-.03-6.3-.19-7.66h-.98c-2.78,0-3.41.05-4.69.68h-.05L.16,1.12h.05c.49.25,5.67.3,6.49.3.9,0,6.4-.05,6.92-.3h.05l-.19,2.48h-.05c-1.25-.63-2.04-.68-4.77-.68h-.71c-.11,1.34-.16,3.52-.16,7.66,0,7.93.16,8.58,1.66,9.18v.05h-5.21v-.05Z"/><path class="cls-1" d="M33.39,19.76c1.36-.55,1.5-1.25,1.5-10.96,0-5.83-.03-6.46-.41-6.84-.27-.3-.6-.35-1.55-.49l-.03-.05,3.84-1.42c-.05.57-.08,4.14-.08,6.87.76-.54,2.02-1.36,3.41-1.36,1.72,0,2.75.9,2.75,2.81,0,.79-.11,2.59-.11,4.03.03,6.32.16,6.87,1.53,7.41v.05h-4.66v-.05c1.23-.46,1.42-1.31,1.42-6.35v-.87c0-1.39-.03-2.67-.03-3.87,0-1.04-.68-1.64-1.88-1.64-.98,0-1.69.22-2.45.46v1.31c0,9.7.14,10.41,1.55,10.96v.05h-4.8v-.05Z"/><path class="cls-1" d="M64.22,12.81c0-4.61,1.99-7.36,5.1-7.36,2.07,0,3.32,1.42,3.32,3.73,0,.41-.03.95-.05,1.44l-6.43-.05c-.05.55-.08,1.12-.08,1.74,0,3.9,1.14,6.32,3.41,6.32,1.28,0,2.29-.65,3.13-1.74h.05l-.33,2.53c-.65.27-1.69.63-3.27.63-3.11,0-4.85-2.62-4.85-7.25ZM71.09,9.32c-.08-1.69-.76-2.59-2.04-2.59s-2.21.93-2.67,2.64l4.71-.05Z"/><path class="cls-1" d="M137.65,17.2h.03c.65.84,1.42,1.25,2.51,1.25,1.44,0,2.45-.76,2.45-1.94,0-2.78-4.55-4.66-4.55-7.66,0-2.1,1.61-3.35,3.87-3.35.54,0,1.28.11,1.61.19l.33,2.4h-.03c-.74-.84-1.25-1.14-2.1-1.14-1.14,0-1.88.63-1.88,1.61,0,2.45,4.58,3.98,4.58,7.58,0,2.59-1.83,3.95-4.47,3.95-.6,0-1.61-.16-2.04-.25l-.3-2.64Z"/><path class="cls-1" d="M164.91,12.81c0-4.74,1.88-7.36,4.82-7.36s4.55,2.75,4.55,7.3-1.8,7.36-4.8,7.36-4.58-2.75-4.58-7.3ZM172.38,13.08c0-4.17-1.14-6.19-2.89-6.19-1.58,0-2.67,2.07-2.67,5.59,0,3.71,1.01,6.19,2.89,6.19,1.74,0,2.67-1.91,2.67-5.59Z"/><path class="cls-1" d="M195.79,12.32v-1.34c0-2.83-.08-3.49-.35-3.87-.3-.33-.57-.35-1.36-.46v-.05c.84-.19,2.26-.6,3.49-1.06,0,.63-.03,6.6-.03,10.38,0,1.74.46,2.48,1.44,2.48,1.14,0,1.99-.27,2.89-.57.03-1.12.11-3.11.11-5.5,0-4.17-.03-4.8-.38-5.21-.22-.27-.52-.35-1.34-.46v-.05c.68-.14,2.43-.63,3.54-1.06-.05.9-.11,5.1-.11,6.73.03,6.35.16,6.92,1.55,7.49v.05h-2.51c-.57,0-.9-.3-.9-1.12v-.25c-.9.65-2.37,1.47-3.82,1.47s-2.34-.9-2.34-2.78c0-1.12.11-2.73.11-4.82Z"/><path class="cls-1" d="M224.6,19.76c1.36-.55,1.5-1.25,1.5-10.96,0-5.83-.03-6.46-.41-6.84-.27-.3-.6-.35-1.55-.49l-.03-.05c.98-.33,2.4-.87,3.84-1.42-.08.74-.11,6.27-.11,8.8,0,9.7.14,10.41,1.55,10.96v.05h-4.8v-.05Z"/><path class="cls-1" d="M271.76,12.81c0-4.74,1.88-7.36,4.82-7.36s4.55,2.75,4.55,7.3-1.8,7.36-4.8,7.36-4.58-2.75-4.58-7.3ZM279.23,13.08c0-4.17-1.14-6.19-2.89-6.19-1.58,0-2.67,2.07-2.67,5.59,0,3.71,1.01,6.19,2.89,6.19,1.74,0,2.67-1.91,2.67-5.59Z"/><path class="cls-1" d="M301.36,19.76c1.42-.55,1.55-1.12,1.55-10.96v-1.47h-1.58l.41-1.55h1.17c.16-2.94,2.29-5.12,5.4-5.12.25,0,.68,0,.95.05l.74,1.44-.05.03c-.3-.03-.63-.05-.9-.05-2.59,0-4.11,1.34-4.31,3.65h3.65l-.08,1.55h-3.57v1.47c0,10.14,0,10.38,2.21,10.96v.05h-5.59v-.05Z"/><path class="cls-1" d="M351.95,12.15c0-1.34-.03-2.53-.03-4.82h-1.55l.14-1.25c1.93-.3,2.37-.74,3.35-3.57h.08c-.05.6-.08,1.83-.11,3.24h3.13l-.25,1.58h-2.92c-.03,1.64-.05,3.38-.05,4.74,0,1.53.03,3.68.03,5.34,0,.57.35,1.01,1.06,1.01s1.5-.25,2.15-.52l.03.05-.6,1.77c-.6.14-1.44.25-2.32.25-1.39,0-2.21-.71-2.21-1.94,0-2.13.05-4.66.05-5.89Z"/><path class="cls-1" d="M376.7,19.76c1.36-.55,1.5-1.25,1.5-10.96,0-5.83-.03-6.46-.41-6.84-.27-.3-.6-.35-1.55-.49l-.03-.05,3.84-1.42c-.05.57-.08,4.14-.08,6.87.76-.54,2.02-1.36,3.41-1.36,1.72,0,2.75.9,2.75,2.81,0,.79-.11,2.59-.11,4.03.03,6.32.16,6.87,1.53,7.41v.05h-4.66v-.05c1.23-.46,1.42-1.31,1.42-6.35v-.87c0-1.39-.03-2.67-.03-3.87,0-1.04-.68-1.64-1.88-1.64-.98,0-1.69.22-2.45.46v1.31c0,9.7.14,10.41,1.55,10.96v.05h-4.8v-.05Z"/><path class="cls-1" d="M407.53,12.81c0-4.61,1.99-7.36,5.1-7.36,2.07,0,3.32,1.42,3.32,3.73,0,.41-.03.95-.05,1.44l-6.43-.05c-.05.55-.08,1.12-.08,1.74,0,3.9,1.14,6.32,3.41,6.32,1.28,0,2.29-.65,3.13-1.74h.05l-.33,2.53c-.65.27-1.69.63-3.27.63-3.11,0-4.85-2.62-4.85-7.25ZM414.4,9.32c-.08-1.69-.76-2.59-2.04-2.59s-2.21.93-2.67,2.64l4.71-.05Z"/><path class="cls-1" d="M458.64,16.6h.05c1.09,1.39,2.07,1.99,3.43,1.99,2.1,0,3.52-1.28,3.52-3.24,0-1.12-.68-2.29-2.02-3.65l-2.34-2.34c-1.36-1.34-2.04-2.64-2.04-3.95,0-2.78,2.32-4.36,5.23-4.36.79,0,1.72.16,2.21.27l.44,3.11h-.05c-.98-1.42-1.8-1.96-2.89-1.96-1.91,0-3.08.95-3.08,2.51,0,.93.6,1.85,1.77,3.03l2.51,2.45c1.47,1.47,2.21,3,2.21,4.55,0,3.41-2.4,5.12-5.67,5.12-.9,0-2.29-.22-2.89-.3l-.38-3.22Z"/><path class="cls-1" d="M493.91,11.28c-.03-3.84-.33-4.28-2.07-4.28-1.61,0-2.94.49-3.76.93h-.03l1.17-2.18c1.06-.16,2.15-.27,3.22-.27,1.72,0,3.22.49,3.22,2.4,0,.27-.03,2.02-.03,3.22,0,6.68.03,7.17.82,7.17.27,0,.52-.05.76-.11l.03.05-1.01,1.61c-.35.05-.68.08-1.12.08-1.04,0-1.39-.52-1.39-1.61,0-1.01.11-3.95.16-5.7-3.02.82-4.33,2.23-4.33,3.84,0,1.23.6,1.88,1.94,1.88.74,0,1.42-.3,1.88-.57l.05.05-1.17,1.96c-.6.14-1.14.16-1.72.16-1.8,0-2.81-1.17-2.81-2.64,0-2.56,2.53-4.39,6.19-6Z"/><path class="cls-1" d="M516.78,19.76c1.34-.52,1.5-1.28,1.5-7.44,0-4.06-.05-4.63-.38-5.04-.27-.3-.6-.41-1.53-.57l-.03-.05c.44-.16,2.26-.82,3.41-1.25.05.41.19.82.25,1.55.82-.63,2.21-1.44,3.54-1.44,1.25,0,2.15.49,2.53,1.5.82-.63,2.23-1.5,3.62-1.5,1.72,0,2.73.9,2.73,2.81,0,.79-.08,2.59-.08,4.03.03,6.38.16,6.87,1.5,7.41v.05h-4.66v-.05c1.28-.49,1.44-1.09,1.44-7.44,0-.82-.03-2.62-.03-3.65-.03-1.01-.68-1.64-1.88-1.64-1.01,0-1.74.25-2.51.49.05.25.08.49.08.79,0,.79-.11,2.59-.11,4.03.03,6.32.16,6.87,1.5,7.41v.05h-4.66v-.05c1.31-.55,1.44-1.31,1.44-7.44,0-.84-.03-2.62-.03-3.65-.03-1.01-.68-1.64-1.88-1.64-1.01,0-1.74.25-2.53.49,0,.19.03.41.03.63,0,.52-.03,3.57-.03,4.12,0,6.35.11,6.95,1.44,7.49v.05h-4.69v-.05Z"/><path class="cls-1" d="M554.72,12.32v-1.34c0-2.83-.08-3.49-.35-3.87-.3-.33-.57-.35-1.36-.46v-.05c.84-.19,2.26-.6,3.49-1.06,0,.63-.03,6.6-.03,10.38,0,1.74.46,2.48,1.44,2.48,1.14,0,1.99-.27,2.89-.57.03-1.12.11-3.11.11-5.5,0-4.17-.03-4.8-.38-5.21-.22-.27-.52-.35-1.34-.46v-.05c.68-.14,2.43-.63,3.54-1.06-.05.9-.11,5.1-.11,6.73.03,6.35.16,6.92,1.55,7.49v.05h-2.51c-.57,0-.9-.3-.9-1.12v-.25c-.9.65-2.37,1.47-3.82,1.47s-2.34-.9-2.34-2.78c0-1.12.11-2.73.11-4.82Z"/><path class="cls-1" d="M583.73,19.76c1.36-.52,1.5-1.25,1.5-7.49,0-4.06-.03-4.63-.38-5.04-.25-.33-.57-.41-1.53-.57v-.05c.68-.16,2.32-.63,3.46-1.04.11.52.19,1.28.22,2.26.87-1.42,2.23-2.07,3.52-2.07h.33l-.27,1.91h-.19c-1.14,0-2.67.22-3.38.87,0,1.01-.03,3.27-.03,3.73.03,6.35.16,6.79,1.58,7.49v.05h-4.82v-.05Z"/><path class="cls-1" d="M616.41,11.28c-.03-3.84-.33-4.28-2.07-4.28-1.61,0-2.94.49-3.76.93h-.03l1.17-2.18c1.06-.16,2.15-.27,3.22-.27,1.72,0,3.22.49,3.22,2.4,0,.27-.03,2.02-.03,3.22,0,6.68.03,7.17.82,7.17.27,0,.52-.05.76-.11l.03.05-1.01,1.61c-.35.05-.68.08-1.12.08-1.04,0-1.39-.52-1.39-1.61,0-1.01.11-3.95.16-5.7-3.02.82-4.33,2.23-4.33,3.84,0,1.23.6,1.88,1.94,1.88.74,0,1.42-.3,1.88-.57l.05.05-1.17,1.96c-.6.14-1.14.16-1.72.16-1.8,0-2.81-1.17-2.81-2.64,0-2.56,2.53-4.39,6.19-6Z"/><path class="cls-1" d="M643.65,3.76h-2.34V1.47h2.34v2.29ZM643.53,19.81h-2.1c0-.14.02-1.02.03-2.62.01-1.61.02-2.93.02-3.98,0-.91,0-1.92,0-3.01,0-1.1-.02-2.38-.05-3.85h2.1c-.02,1.28-.03,2.47-.05,3.59-.01,1.11-.02,2.11-.02,2.97,0,2.07.01,3.73.03,4.98.02,1.25.03,1.89.03,1.93Z"/></g></g></svg>