<svg viewBox="0 0 24 24" xmlns="http://www.w3.org/2000/svg"><path d="M9 11.71l.29-.3 .29.3 -.01-.01c.38.39 1.02.39 1.41 0 0-.01 0-.01 0-.01l0-.01c.39-.39.39-1.03 0-1.42 -.01-.01-.01-.01-.01-.01l-.3-.29 .3-.29 -.01 0c.39-.41.38-1.05-.02-1.44 -.41-.4-1.05-.39-1.44.01l-.29.3 -.25-.3 -.01-.01c-.4-.41-1.04-.42-1.44-.02 -.41.39-.42 1.03-.02 1.44l.3.29 -.3.29 0-.01c-.4.38-.4 1.02-.01 1.41 0 0 0 0 0 0l-.01-.01c.38.39 1.02.39 1.41 0 0-.01 0-.01 0-.01Zm-.6 3.62l0-.01c-.42.35-.48.97-.14 1.4l-.01-.01c.35.42.98.48 1.4.13 0-.01 0-.01 0-.01l-.01 0c1.37-1.12 3.34-1.12 4.72-.01l0 0c.42.35 1.05.29 1.4-.13 0-.01 0-.01 0-.01l0-.01c.34-.43.28-1.05-.14-1.4l0 0c-2.14-1.74-5.19-1.74-7.32 0ZM12 2l-.01 0c-5.53 0-10 4.47-10 10 0 5.52 4.47 10 10 9.99 5.52-.01 10-4.48 9.99-10.01l0 0c0-5.53-4.48-10-10-10Zm0 18l-.01-.001c-4.42-.01-8-3.59-8-8.01s3.58-8 8-8c4.41 0 8 3.58 7.99 8l0-.01c0 4.41-3.59 8-8 8Zm5-11.71l-.01-.01c-.39-.4-1.03-.4-1.42-.01 -.01 0-.01 0-.01 0l-.29.3 -.29-.31 0 0c-.4-.4-1.03-.4-1.42-.01 -.4.39-.4 1.02-.01 1.42l.3.29 -.3.29 0-.01c-.4.38-.4 1.02-.01 1.41 0 0 0 0 0 0l-.01-.01c.38.39 1.02.39 1.41 0 0-.01 0-.01 0-.01l.29-.3 .29.3 -.01-.01c.38.39 1.02.39 1.41 0 0-.01 0-.01 0-.01l0-.01c.39-.39.39-1.03 0-1.42 -.01-.01-.01-.01-.01-.01l-.3-.29 .3-.29 0-.01c.39-.39.39-1.03 0-1.42 -.01-.01-.01-.01-.01-.01Z"/></svg>